<?xml version="1.0" standalone="no"?>
<!DOCTYPE svg PUBLIC "-//W3C//DTD SVG 20010904//EN"
 "http://www.w3.org/TR/2001/REC-SVG-20010904/DTD/svg10.dtd">
<svg version="1.0" xmlns="http://www.w3.org/2000/svg"
 width="250.000000pt" height="250.000000pt" viewBox="0 0 250.000000 250.000000"
 preserveAspectRatio="xMidYMid meet">
<metadata>
Created by potrace 1.14, written by Peter Selinger 2001-2017
</metadata>
<g transform="translate(0.000000,250.000000) scale(0.100000,-0.100000)"
fill="#000000" stroke="none">
<path d="M942 1924 c-17 -12 -22 -25 -22 -60 l0 -44 -168 0 c-117 0 -172 -4
-180 -12 -16 -16 -16 -220 0 -236 7 -7 22 -12 34 -12 18 0 48 -43 168 -242
l146 -243 0 -247 c0 -244 0 -247 22 -262 26 -18 170 -22 212 -6 l26 10 0 247
0 247 148 248 147 247 108 1 107 0 0 -81 c0 -71 -3 -83 -22 -99 -20 -16 -21
-21 -10 -45 9 -20 10 -31 1 -41 -6 -7 -8 -21 -5 -31 4 -12 -6 -29 -29 -52 -64
-62 -125 -215 -125 -311 1 -135 137 -242 269 -210 95 23 170 115 171 210 0 96
-61 250 -123 310 -25 24 -35 41 -31 53 3 10 1 24 -5 31 -9 10 -8 21 1 41 11
24 10 29 -10 45 -19 16 -22 28 -22 99 l0 81 76 0 c114 0 114 0 114 128 0 71
-4 112 -12 120 -9 9 -107 12 -380 12 l-368 0 0 50 c0 63 -12 70 -127 70 -64 0
-95 -4 -111 -16z m-22 -476 c0 -68 -4 -108 -9 -103 -9 10 -102 159 -122 196
-9 18 -5 19 61 19 l70 0 0 -112z m400 106 c0 -12 -125 -214 -132 -214 -5 0 -8
50 -8 110 l0 110 70 0 c39 0 70 -3 70 -6z m457 -386 c42 -43 82 -134 96 -214
14 -83 -2 -134 -56 -178 -33 -26 -47 -31 -97 -31 -50 0 -64 5 -97 31 -54 44
-70 95 -56 178 21 126 96 246 153 246 16 0 38 -12 57 -32z"/>
</g>
</svg>
